<?xml version="1.0"?>
<svg xmlns="http://www.w3.org/2000/svg" id="Capa_1" enable-background="new 0 0 512 512" height="512px" viewBox="0 0 512 512" width="512px" class=""><g><g><circle cx="256" cy="368.56" r="28.579" data-original="#000000" class="active-path" data-old_color="#000000" fill="#FFFFFF"/><path d="m485.175 255.857-39.269 22.672-15.007-25.993 39.224-22.646c-19.187-29.049-44.128-53.973-73.177-73.16l-22.641 39.214-25.993-15.007 22.666-39.257c-30.383-15.307-64.204-24.744-99.972-26.819v45.362h-30.014v-45.362c-35.768 2.075-69.588 11.511-99.972 26.819l22.666 39.257-25.993 15.007-22.641-39.214c-29.049 19.187-53.99 44.111-73.177 73.16l39.224 22.646-15.007 25.993-39.269-22.672c-15.306 30.385-24.748 64.21-26.823 99.979h198.744c1.328-5.921 3.576-11.665 6.75-17.042 13.805-23.383 41.42-33.668 66.407-26.636l49.288-83.487 25.846 15.259-49.281 83.475c7.217 7.289 12.417 16.38 15.044 26.577.159.616.291 1.235.43 1.854h198.772c-2.075-35.769-11.517-69.594-26.825-99.979z" data-original="#000000" class="active-path" data-old_color="#000000" fill="#FFFFFF"/></g></g> </svg>
